<svg width="100" height="100" viewBox="0 0 100 100" fill="none" xmlns="http://www.w3.org/2000/svg">
<path d="M50 85.1562C69.4163 85.1562 85.1562 69.4163 85.1562 50C85.1562 30.5837 69.4163 14.8438 50 14.8438C30.5837 14.8438 14.8438 30.5837 14.8438 50C14.8438 69.4163 30.5837 85.1562 50 85.1562Z" fill="#A0E5A5"/>
<path d="M73.4375 53.9062C75.5949 53.9062 77.3438 52.1574 77.3438 50C77.3438 47.8426 75.5949 46.0938 73.4375 46.0938C71.2801 46.0938 69.5312 47.8426 69.5312 50C69.5312 52.1574 71.2801 53.9062 73.4375 53.9062Z" fill="#FFF2A0"/>
<path d="M69.334 30.666C70.8613 32.1914 70.8613 34.6641 69.334 36.1895C67.8086 37.7148 65.3359 37.7148 63.8105 36.1895C62.2852 34.6641 62.2852 32.1914 63.8105 30.666C65.3359 29.1387 67.8086 29.1387 69.334 30.666Z" fill="#FFF2A0"/>
<path d="M69.334 63.8105C70.8613 65.3359 70.8613 67.8086 69.334 69.334C67.8086 70.8613 65.3359 70.8613 63.8105 69.334C62.2852 67.8086 62.2852 65.3359 63.8105 63.8105C65.3359 62.2852 67.8086 62.2852 69.334 63.8105V63.8105Z" fill="#FFF2A0"/>
<path d="M50 30.4688C52.1574 30.4688 53.9062 28.7199 53.9062 26.5625C53.9062 24.4051 52.1574 22.6562 50 22.6562C47.8426 22.6562 46.0938 24.4051 46.0938 26.5625C46.0938 28.7199 47.8426 30.4688 50 30.4688Z" fill="#FFF2A0"/>
<path d="M50 53.9062C52.1574 53.9062 53.9062 52.1574 53.9062 50C53.9062 47.8426 52.1574 46.0938 50 46.0938C47.8426 46.0938 46.0938 47.8426 46.0938 50C46.0938 52.1574 47.8426 53.9062 50 53.9062Z" fill="#FFF2A0"/>
<path d="M50 77.3438C52.1574 77.3438 53.9062 75.5949 53.9062 73.4375C53.9062 71.2801 52.1574 69.5312 50 69.5312C47.8426 69.5312 46.0938 71.2801 46.0938 73.4375C46.0938 75.5949 47.8426 77.3438 50 77.3438Z" fill="#FFF2A0"/>
<path d="M36.1895 30.666C37.7148 32.1914 37.7148 34.6641 36.1895 36.1895C34.6641 37.7148 32.1914 37.7148 30.666 36.1895C29.1387 34.6641 29.1387 32.1914 30.666 30.666C32.1914 29.1387 34.6641 29.1387 36.1895 30.666Z" fill="#FFF2A0"/>
<path d="M36.1895 63.8105C37.7148 65.3359 37.7148 67.8086 36.1895 69.334C34.6641 70.8613 32.1914 70.8613 30.666 69.334C29.1387 67.8086 29.1387 65.3359 30.666 63.8105C32.1914 62.2852 34.6641 62.2852 36.1895 63.8105V63.8105Z" fill="#FFF2A0"/>
<path d="M26.5625 53.9062C28.7199 53.9062 30.4688 52.1574 30.4688 50C30.4688 47.8426 28.7199 46.0938 26.5625 46.0938C24.4051 46.0938 22.6562 47.8426 22.6562 50C22.6562 52.1574 24.4051 53.9062 26.5625 53.9062Z" fill="#FFF2A0"/>
<path d="M61.7188 51.9531C62.7974 51.9531 63.6719 51.0787 63.6719 50C63.6719 48.9213 62.7974 48.0469 61.7188 48.0469C60.6401 48.0469 59.7656 48.9213 59.7656 50C59.7656 51.0787 60.6401 51.9531 61.7188 51.9531Z" fill="black"/>
<path d="M58.2871 43.6656C59.3655 43.6656 60.2398 42.7913 60.2398 41.7129C60.2398 40.6344 59.3655 39.7601 58.2871 39.7601C57.2086 39.7601 56.3344 40.6344 56.3344 41.7129C56.3344 42.7913 57.2086 43.6656 58.2871 43.6656Z" fill="black"/>
<path d="M58.2871 60.2399C59.3655 60.2399 60.2398 59.3656 60.2398 58.2871C60.2398 57.2086 59.3655 56.3344 58.2871 56.3344C57.2086 56.3344 56.3344 57.2086 56.3344 58.2871C56.3344 59.3656 57.2086 60.2399 58.2871 60.2399Z" fill="black"/>
<path d="M50 40.2344C51.0787 40.2344 51.9531 39.3599 51.9531 38.2812C51.9531 37.2026 51.0787 36.3281 50 36.3281C48.9213 36.3281 48.0469 37.2026 48.0469 38.2812C48.0469 39.3599 48.9213 40.2344 50 40.2344Z" fill="black"/>
<path d="M50 63.6719C51.0787 63.6719 51.9531 62.7974 51.9531 61.7188C51.9531 60.6401 51.0787 59.7656 50 59.7656C48.9213 59.7656 48.0469 60.6401 48.0469 61.7188C48.0469 62.7974 48.9213 63.6719 50 63.6719Z" fill="black"/>
<path d="M41.7129 43.6656C42.7913 43.6656 43.6656 42.7913 43.6656 41.7129C43.6656 40.6344 42.7913 39.7601 41.7129 39.7601C40.6344 39.7601 39.7601 40.6344 39.7601 41.7129C39.7601 42.7913 40.6344 43.6656 41.7129 43.6656Z" fill="black"/>
<path d="M41.7129 60.2399C42.7913 60.2399 43.6656 59.3656 43.6656 58.2871C43.6656 57.2086 42.7913 56.3344 41.7129 56.3344C40.6344 56.3344 39.7601 57.2086 39.7601 58.2871C39.7601 59.3656 40.6344 60.2399 41.7129 60.2399Z" fill="black"/>
<path d="M38.2812 51.9531C39.3599 51.9531 40.2344 51.0787 40.2344 50C40.2344 48.9213 39.3599 48.0469 38.2812 48.0469C37.2026 48.0469 36.3281 48.9213 36.3281 50C36.3281 51.0787 37.2026 51.9531 38.2812 51.9531Z" fill="black"/>
<path d="M46.0938 100H53.9062C54.9848 100 55.8594 99.1254 55.8594 98.0469C55.8594 96.9683 54.9848 96.0937 53.9062 96.0937H51.9531V93.9455C51.9531 92.867 51.0785 91.9924 50 91.9924C48.9215 91.9924 48.0469 92.867 48.0469 93.9455V96.0937H46.0938C45.015 96.0937 44.1406 96.9683 44.1406 98.0469C44.1406 99.1254 45.015 100 46.0938 100Z" fill="black"/>
<path d="M98.0469 44.1406C96.9684 44.1406 96.0938 45.0152 96.0938 46.0938V48.0469H87.058C86.8736 44.4693 86.1814 40.9762 84.992 37.6191L88.641 36.1078L89.3891 37.9137C89.8004 38.9055 90.9398 39.385 91.9412 38.9701C92.9377 38.557 93.4105 37.4143 92.9977 36.418L90.0074 29.2C89.5949 28.2033 88.4525 27.7295 87.4559 28.1426C86.4592 28.5551 85.9859 29.6977 86.3984 30.6941L87.1461 32.499L83.4957 34.0107C81.9586 30.7914 79.9785 27.832 77.5852 25.1771L83.1461 19.6174L84.527 20.9982C85.29 21.7609 86.5262 21.7607 87.2893 20.9982C88.052 20.2355 88.052 18.999 87.2893 18.2359C85.4408 16.3875 83.8193 14.766 81.7639 12.7105C81.001 11.948 79.7643 11.948 79.0016 12.7105C78.2389 13.4734 78.2389 14.71 79.0016 15.4729L80.384 16.8553L74.823 22.415C72.1682 20.0215 69.2088 18.0414 65.9891 16.5043L67.5008 12.8539L69.3057 13.6016C70.3021 14.0146 71.4447 13.5404 71.8572 12.5441C72.2699 11.5475 71.7963 10.4051 70.7998 9.99258L63.5818 7.00234C62.5859 6.59004 61.4426 7.0625 61.0297 8.05879C60.6168 9.05508 61.0898 10.1979 62.0861 10.6109L63.892 11.359L62.3807 15.008C59.0238 13.8186 55.5307 13.1264 51.9529 12.942V3.90625H53.9061C54.9846 3.90625 55.8592 3.03164 55.8592 1.95313C55.8592 0.874609 54.9846 0 53.9061 0H46.0936C45.0148 0 44.1404 0.874609 44.1404 1.95313C44.1404 3.03164 45.0148 3.90625 46.0936 3.90625H48.0467V12.942C44.4691 13.1264 40.976 13.8186 37.6191 15.008L36.108 11.359L37.9139 10.6109C38.9104 10.1979 39.3832 9.05508 38.9703 8.05879C38.5574 7.06211 37.4148 6.58984 36.4182 7.00234L29.2002 9.99258C28.2035 10.4051 27.7301 11.5475 28.1426 12.5441C28.5553 13.541 29.6982 14.0145 30.6943 13.6016L32.4992 12.8539L34.0109 16.5043C30.7914 18.0414 27.832 20.0215 25.1771 22.415L19.6166 16.8545L20.9986 15.4725C21.7611 14.7096 21.7607 13.473 20.9979 12.7104C20.235 11.948 18.9982 11.9484 18.2357 12.7113L12.7111 18.2357C11.9482 18.9982 11.9477 20.2348 12.7104 20.9979C13.4721 21.7605 14.709 21.7617 15.4725 20.9988L16.8545 19.6166L22.415 25.177C20.0215 27.8318 18.0414 30.7912 16.5041 34.0107L12.8537 32.499L13.6014 30.6941C14.0139 29.6973 13.5404 28.5551 12.5437 28.1426C11.5471 27.7295 10.4047 28.2035 9.99219 29.2L7.00234 36.418C6.58926 37.4145 7.0623 38.557 8.05879 38.9701C9.06367 39.3863 10.2012 38.902 10.6109 37.9137L11.359 36.1078L15.008 37.6191C13.8186 40.9758 13.1264 44.4691 12.942 48.0469H3.90625V46.0938C3.90625 45.0152 3.03184 44.1406 1.95312 44.1406C0.874414 44.1406 0 45.0152 0 46.0938V53.9063C0 54.9848 0.874414 55.8594 1.95312 55.8594C3.03184 55.8594 3.90625 54.9848 3.90625 53.9063V51.9531H12.942C13.1264 55.5309 13.8186 59.024 15.008 62.3809L11.359 63.8922L10.6109 62.0863C10.198 61.0898 9.05547 60.6174 8.05879 61.0299C7.0623 61.443 6.58945 62.5857 7.00234 63.582L9.99219 70.8C10.4057 71.7984 11.5496 72.2697 12.5437 71.8574C13.5404 71.4449 14.0139 70.3025 13.6014 69.3059L12.8537 67.501L16.5041 65.9893C18.0412 69.2088 20.0213 72.1682 22.415 74.8232L16.8547 80.3848L15.4732 79.0024C14.7107 78.2393 13.474 78.2391 12.7111 79.0014C11.948 79.7637 11.9477 81.0004 12.7102 81.7635C18.9943 88.0477 18.1525 87.2059 18.2361 87.2895C18.999 88.0522 20.2355 88.052 20.9982 87.2895C21.7609 86.5268 21.7609 85.29 20.9982 84.5272L19.6174 83.1465L25.1773 77.5854C27.8322 79.9787 30.7914 81.9588 34.0109 83.4959L32.4992 87.1463L30.6943 86.3986C29.6975 85.9857 28.5553 86.4594 28.1426 87.4561C27.7301 88.4529 28.2035 89.5951 29.2002 90.0076L36.4182 92.9979C37.423 93.4141 38.5605 92.9297 38.9703 91.9414C39.3834 90.9449 38.9104 89.8024 37.9139 89.3893L36.108 88.6412L37.6191 84.9926C38.6641 85.3621 39.7266 85.6856 40.7951 85.9584C41.8406 86.2254 42.9037 85.5942 43.1707 84.5488C43.4375 83.5037 42.8064 82.4402 41.7613 82.1734C40.8723 81.9465 39.9893 81.6762 39.118 81.374L41.3398 76.0092C41.7525 75.0125 41.2791 73.8701 40.2824 73.4576C39.2857 73.0447 38.1434 73.5186 37.7307 74.515L35.5086 79.8805C28.8154 76.6332 23.3725 71.1959 20.1199 64.492L25.4855 62.2697C26.4822 61.857 26.9555 60.7147 26.543 59.7182C26.1303 58.7213 24.9881 58.2486 23.9912 58.6607L18.6236 60.8838C17.4121 57.3955 16.7969 53.7438 16.7969 50C16.7969 46.2561 17.4121 42.6041 18.6234 39.1166L23.991 41.3397C24.9939 41.7545 26.1326 41.2732 26.5428 40.2822C26.9555 39.2855 26.482 38.1434 25.4854 37.7307L20.1197 35.5084C23.3672 28.8146 28.8047 23.3721 35.5084 20.1199L37.7305 25.4854C38.141 26.4772 39.2803 26.9572 40.2822 26.5428C41.2789 26.1303 41.7521 24.9877 41.3396 23.9912L39.1166 18.6234C42.6045 17.4121 46.2563 16.7969 50 16.7969C53.7437 16.7969 57.3955 17.4121 60.8834 18.6234L58.6604 23.9912C58.2477 24.9879 58.7211 26.1301 59.7178 26.5428C60.7207 26.9576 61.8592 26.4764 62.2693 25.4854L64.4914 20.1197C71.1854 23.3672 76.6277 28.8045 79.8801 35.5082L74.5145 37.7305C73.5176 38.1432 73.0443 39.2856 73.457 40.282C73.8689 41.2772 75.0104 41.7529 76.0086 41.3395L81.3764 39.1164C82.5879 42.6047 83.2031 46.2564 83.2031 50C83.2031 53.7438 82.5879 57.3955 81.3766 60.8834L76.0088 58.6604C75.0119 58.2481 73.8697 58.7211 73.4572 59.7178C73.0445 60.7145 73.518 61.8566 74.5147 62.2693L79.8803 64.4916C78.2648 67.8213 76.1186 70.8385 73.4785 73.4783C70.8385 76.1184 67.8215 78.2648 64.4918 79.8801L62.2697 74.5145C61.8572 73.5176 60.7143 73.0449 59.7182 73.457C58.7213 73.8697 58.248 75.0121 58.6607 76.0086L60.8826 81.3734C60.0111 81.6756 59.1283 81.9461 58.2391 82.1731C57.1939 82.4399 56.5629 83.5035 56.8297 84.5486C57.0975 85.5977 58.1641 86.2238 59.2053 85.958C60.2738 85.6852 61.3363 85.3619 62.3814 84.9924L63.8926 88.641L62.0867 89.3891C61.0902 89.8022 60.6174 90.9449 61.0303 91.9412C61.4416 92.9332 62.5812 93.4123 63.5824 92.9977L70.8004 90.0074C71.7971 89.5949 72.2705 88.4523 71.8578 87.4559C71.4453 86.4592 70.3031 85.9854 69.3062 86.3984L67.5014 87.1461L65.9896 83.4957C69.2092 81.9586 72.1686 79.9785 74.8234 77.585L80.3838 83.1453L79.0027 84.5264C78.2396 85.2889 78.2393 86.5256 79.0016 87.2887C79.7639 88.0514 81.0002 88.0525 81.7639 87.2899L87.2904 81.7633C88.0527 81.0004 88.0523 79.7637 87.2893 79.001C86.5262 78.2387 85.2895 78.2391 84.527 79.0022L83.1459 80.3832L77.5855 74.8229C79.9789 72.168 81.959 69.2086 83.4963 65.9891L87.1467 67.5008L86.399 69.3057C85.9865 70.3023 86.46 71.4447 87.4564 71.8572C88.4529 72.2703 89.5955 71.7961 90.008 70.7998L92.9982 63.5818C93.4111 62.5854 92.9381 61.4428 91.9418 61.0297C90.9459 60.617 89.8025 61.0897 89.3896 62.0861L88.6416 63.892L84.9926 62.3807C86.182 59.0238 86.8742 55.5307 87.0586 51.9529H96.0938V53.9061C96.0938 54.9846 96.9684 55.8592 98.0469 55.8592C99.1254 55.8592 100 54.9846 100 53.9061V46.0936C100 45.0152 99.1254 44.1406 98.0469 44.1406V44.1406Z" fill="black"/>
<path d="M55.8594 26.5625C55.8594 23.3316 53.2309 20.7031 50 20.7031C46.7691 20.7031 44.1406 23.3316 44.1406 26.5625C44.1406 29.7934 46.7691 32.4219 50 32.4219C53.2309 32.4219 55.8594 29.7934 55.8594 26.5625ZM50 28.5156C48.923 28.5156 48.0469 27.6395 48.0469 26.5625C48.0469 25.4855 48.923 24.6094 50 24.6094C51.077 24.6094 51.9531 25.4855 51.9531 26.5625C51.9531 27.6395 51.077 28.5156 50 28.5156Z" fill="black"/>
<path d="M50 79.2969C53.2309 79.2969 55.8594 76.6684 55.8594 73.4375C55.8594 70.2066 53.2309 67.5781 50 67.5781C46.7691 67.5781 44.1406 70.2066 44.1406 73.4375C44.1406 76.6684 46.7691 79.2969 50 79.2969ZM50 71.4844C51.077 71.4844 51.9531 72.3605 51.9531 73.4375C51.9531 74.5145 51.077 75.3906 50 75.3906C48.923 75.3906 48.0469 74.5145 48.0469 73.4375C48.0469 72.3605 48.923 71.4844 50 71.4844Z" fill="black"/>
<path d="M37.5705 37.5705C39.8602 35.2809 39.8606 31.5752 37.5705 29.2848C35.2826 26.9953 31.5752 26.9918 29.2858 29.284C26.9944 31.5727 26.9918 35.2801 29.285 37.5705C31.5692 39.8547 35.2862 39.8549 37.5705 37.5705ZM32.0479 32.0461C32.8112 31.2823 34.0446 31.2824 34.8076 32.0461C34.8078 32.0465 34.808 32.0467 34.8084 32.0471C35.5715 32.8102 35.5717 34.0449 34.8084 34.8084C34.0473 35.5697 32.8084 35.5699 32.0461 34.8074C31.2901 34.0524 31.2742 32.8192 32.0479 32.0461V32.0461Z" fill="black"/>
<path d="M62.4295 62.4295C60.1454 64.7137 60.1454 68.4307 62.4288 70.7143C64.7186 73.0072 68.4286 73.0043 70.7145 70.716C73.0063 68.4268 73.0079 64.7199 70.7151 62.4295C68.4307 60.1451 64.7137 60.1451 62.4295 62.4295ZM67.954 65.1924C68.7151 65.9527 68.7209 67.1857 67.9522 67.9537C67.1973 68.7094 65.9635 68.7258 65.1916 67.9531C64.4305 67.1918 64.4305 65.9529 65.1916 65.1916C65.9522 64.4307 67.1917 64.4301 67.9532 65.1916C67.9534 65.192 67.9536 65.1922 67.954 65.1924Z" fill="black"/>
<path d="M20.7031 50C20.7031 53.2309 23.3316 55.8594 26.5625 55.8594C29.7934 55.8594 32.4219 53.2309 32.4219 50C32.4219 46.7691 29.7934 44.1406 26.5625 44.1406C23.3316 44.1406 20.7031 46.7691 20.7031 50ZM28.5156 50C28.5156 51.077 27.6395 51.9531 26.5625 51.9531C25.4855 51.9531 24.6094 51.077 24.6094 50C24.6094 48.923 25.4855 48.0469 26.5625 48.0469C27.6395 48.0469 28.5156 48.923 28.5156 50Z" fill="black"/>
<path d="M79.2969 50C79.2969 46.7691 76.6684 44.1406 73.4375 44.1406C70.2066 44.1406 67.5781 46.7691 67.5781 50C67.5781 53.2309 70.2066 55.8594 73.4375 55.8594C76.6684 55.8594 79.2969 53.2309 79.2969 50ZM71.4844 50C71.4844 48.923 72.3605 48.0469 73.4375 48.0469C74.5145 48.0469 75.3906 48.923 75.3906 50C75.3906 51.077 74.5145 51.9531 73.4375 51.9531C72.3605 51.9531 71.4844 51.077 71.4844 50Z" fill="black"/>
<path d="M37.5705 70.7152C39.8599 68.4254 39.8607 64.7197 37.5705 62.4295C35.2865 60.1455 31.5701 60.1455 29.2859 62.4285C26.9908 64.7211 26.9957 68.4287 29.2841 70.7142C31.5724 73.0055 35.28 73.0082 37.5705 70.7152ZM32.046 65.1926C32.0462 65.1922 32.0466 65.192 32.0468 65.1916C32.8078 64.4307 34.0468 64.4301 34.8083 65.1916C35.5675 65.951 35.5755 67.1855 34.8076 67.9539C34.047 68.715 32.8142 68.7209 32.0462 67.9521C31.2824 67.1892 31.2818 65.9558 32.046 65.1926V65.1926Z" fill="black"/>
<path d="M62.4294 29.2849C60.1453 31.5693 60.1453 35.2863 62.4294 37.5705C64.713 39.8537 68.4294 39.8557 70.7142 37.5713C73.0095 35.2793 73.0042 31.5715 70.716 29.2855C68.4265 26.9939 64.7199 26.9922 62.4294 29.2849ZM67.9531 34.8084C67.1916 35.5695 65.9529 35.5699 65.1916 34.8084C64.4304 34.0473 64.4304 32.8084 65.1916 32.0469C65.1919 32.0467 65.1921 32.0465 65.1923 32.0461C65.9527 31.2849 67.1857 31.2791 67.9537 32.0478C68.7093 32.8027 68.7257 34.0365 67.9531 34.8084Z" fill="black"/>
<path d="M50 55.8594C53.2309 55.8594 55.8594 53.2309 55.8594 50C55.8594 46.7691 53.2309 44.1406 50 44.1406C46.7691 44.1406 44.1406 46.7691 44.1406 50C44.1406 53.2309 46.7691 55.8594 50 55.8594ZM50 48.0469C51.077 48.0469 51.9531 48.923 51.9531 50C51.9531 51.077 51.077 51.9531 50 51.9531C48.923 51.9531 48.0469 51.077 48.0469 50C48.0469 48.923 48.923 48.0469 50 48.0469Z" fill="black"/>
<path d="M51.8308 85.9255C52.2439 84.9288 51.7709 83.7859 50.7742 83.3727C49.7775 82.9596 48.6346 83.4327 48.2214 84.4294C47.8083 85.4261 48.2814 86.569 49.2781 86.9821C50.2748 87.3953 51.4177 86.9222 51.8308 85.9255Z" fill="black"/>
</svg>
